<svg width="70" height="70" viewBox="0 0 70 70" fill="none" xmlns="http://www.w3.org/2000/svg">
<path opacity="0.7" d="M35.6475 17.4329C39.7937 17.3633 43.8001 18.9311 46.7979 21.7962L55.1629 13.4312C49.8838 8.47224 42.89 5.74934 35.6475 5.83331C30.2397 5.83106 24.9378 7.33292 20.3346 10.171C15.7313 13.0091 12.0082 17.0715 9.58124 21.9041L19.3258 29.4583C20.4465 25.9984 22.6241 22.9771 25.5521 20.8199C28.4801 18.6626 32.0109 17.478 35.6475 17.4329Z" fill="#B9B9B9"/>
<path d="M9.58125 21.9042C7.54223 25.9685 6.48044 30.4529 6.48044 35C6.48044 39.5472 7.54223 44.0315 9.58125 48.0958L19.3258 40.5417C18.1064 36.9479 18.1064 33.0522 19.3258 29.4583L9.58125 21.9042Z" fill="#B9B9B9"/>
<path opacity="0.5" d="M45.5233 49.7818C43.2683 51.2293 40.7126 52.1426 38.0509 52.4522C35.3892 52.7618 32.692 52.4594 30.165 51.5681C27.638 50.6768 25.3479 49.2202 23.4694 47.3093C21.591 45.3983 20.1737 43.0837 19.3258 40.5417L9.58417 48.0959C12.0106 52.9277 15.7329 56.9895 20.335 59.8275C24.9371 62.6655 30.2378 64.1679 35.6446 64.1668C42.7446 64.359 49.6497 61.8309 54.9471 57.0997L45.5233 49.7818Z" fill="#B9B9B9"/>
<path opacity="0.25" d="M63.1167 29.6975H35.6475V40.9792H51.345C51.0201 42.7638 50.3366 44.4639 49.336 45.9769C48.3354 47.4898 47.0384 48.7842 45.5233 49.7817L54.95 57.1025C57.8206 54.3379 60.0782 51.0009 61.5765 47.3079C63.0748 43.6148 63.7804 39.6482 63.6475 35.665C63.6475 33.6613 63.4725 31.6663 63.1167 29.6975Z" fill="#B9B9B9"/>
</svg>
