<svg width="14" height="12" viewBox="0 0 14 12" fill="none" xmlns="http://www.w3.org/2000/svg">
<path d="M0.875 1.9745C1.64937 1.65075 2.75975 1.30163 3.8395 1.19313C5.00325 1.07588 5.99025 1.24825 6.5625 1.85113V10.3789C5.74438 9.91513 4.7075 9.85125 3.75113 9.9475C2.71863 10.0525 1.67737 10.3509 0.875 10.6571V1.9745ZM7.4375 1.85113C8.00975 1.24825 8.99675 1.07588 10.1605 1.19313C11.2403 1.30163 12.3506 1.65075 13.125 1.9745V10.6571C12.3217 10.3509 11.2814 10.0516 10.2489 9.94838C9.29163 9.85125 8.25562 9.91425 7.4375 10.3789V1.85113ZM7 1.06013C6.13812 0.319002 4.88863 0.208753 3.75113 0.322503C2.42638 0.456378 1.08938 0.910503 0.256375 1.28938C0.179943 1.32414 0.115128 1.38016 0.0696684 1.45076C0.0242084 1.52135 2.325e-05 1.60354 0 1.6875L0 11.3125C2.02667e-05 11.3857 0.0184075 11.4577 0.0534775 11.522C0.0885474 11.5862 0.139179 11.6407 0.200734 11.6803C0.26229 11.7199 0.332801 11.7434 0.40581 11.7487C0.478819 11.754 0.551992 11.7409 0.618625 11.7106C1.39038 11.3606 2.63375 10.9398 3.83862 10.8181C5.0715 10.6939 6.10488 10.8943 6.65875 11.5855C6.69974 11.6366 6.75169 11.6778 6.81075 11.7062C6.86982 11.7345 6.93449 11.7492 7 11.7492C7.06551 11.7492 7.13018 11.7345 7.18925 11.7062C7.24831 11.6778 7.30026 11.6366 7.34125 11.5855C7.89513 10.8943 8.9285 10.6939 10.1605 10.8181C11.3663 10.9398 12.6105 11.3606 13.3814 11.7106C13.448 11.7409 13.5212 11.754 13.5942 11.7487C13.6672 11.7434 13.7377 11.7199 13.7993 11.6803C13.8608 11.6407 13.9115 11.5862 13.9465 11.522C13.9816 11.4577 14 11.3857 14 11.3125V1.6875C14 1.60354 13.9758 1.52135 13.9303 1.45076C13.8849 1.38016 13.8201 1.32414 13.7436 1.28938C12.9106 0.910503 11.5736 0.456378 10.2489 0.322503C9.11137 0.207878 7.86188 0.319002 7 1.06013Z" fill="url(#paint0_linear_1_33)"/>
<defs>
<linearGradient id="paint0_linear_1_33" x1="7" y1="0.28389" x2="7" y2="11.7499" gradientUnits="userSpaceOnUse">
<stop stop-color="#9A9A9A"/>
<stop offset="1" stop-color="#343434"/>
</linearGradient>
</defs>
</svg>
