<svg width="38" height="38" viewBox="0 0 38 38" fill="none" xmlns="http://www.w3.org/2000/svg">
<rect x="0.5" y="0.5" width="37" height="37" rx="9.5" stroke="#A3A3A3"/>
<path d="M27 11.5C27 11.1022 26.842 10.7206 26.5607 10.4393C26.2794 10.158 25.8978 10 25.5 10H22.5V8.5H21V10H15V8.5H13.5V10H10.5C10.1022 10 9.72064 10.158 9.43934 10.4393C9.15804 10.7206 9 11.1022 9 11.5V26.5C9 26.8978 9.15804 27.2794 9.43934 27.5607C9.72064 27.842 10.1022 28 10.5 28H13.5V26.5H10.5V11.5H13.5V13H15V11.5H21V13H22.5V11.5H25.5V16H27V11.5Z" fill="#B5B5B5"/>
<path d="M21.75 18.25L23.6617 21.9535L27.75 22.5468L24.75 25.4297L25.5 29.5L21.75 27.5785L18 29.5L18.75 25.4297L15.75 22.5468L19.95 21.9535L21.75 18.25Z" fill="#B5B5B5"/>
</svg>
