<svg width="225" height="226" viewBox="0 0 225 226" fill="none" xmlns="http://www.w3.org/2000/svg">
<g opacity="0.5">
<path d="M60.7887 95.1881C57.2658 90.6246 52.4685 87.2085 47.0038 85.3718C41.5392 83.5351 35.6525 83.3604 30.0885 84.8697C24.5264 86.3815 19.5375 89.5085 15.7526 93.8554C11.9676 98.2023 9.55654 103.574 8.82422 109.291C8.09005 115.008 9.06741 120.814 11.6327 125.975C14.1981 131.137 18.2362 135.421 23.2365 138.288C28.2387 141.152 33.978 142.469 39.7286 142.072C45.4791 141.674 50.9827 139.581 55.5434 136.055C68.2945 126.217 70.6008 107.925 60.7887 95.1881Z" fill="#A0A0A0"/>
<path d="M50.7217 94.2881C49.6133 94.3094 48.5474 94.718 47.7088 95.443C46.8183 96.2134 46.2499 97.2904 46.1164 98.4603C45.9829 99.6302 46.294 100.808 46.9881 101.759C47.6772 102.713 48.6994 103.374 49.8523 103.61C51.0052 103.847 52.205 103.642 53.2143 103.037L49.9184 99.7338L54.0879 95.6012C53.6408 95.1716 53.1133 94.8344 52.5357 94.6091C51.958 94.3837 51.3416 94.2747 50.7217 94.2881ZM54.1846 95.6697L54.1635 95.6768L50.0291 99.8023L53.332 103.107C53.6623 102.914 53.9706 102.685 54.2514 102.425C55.1173 101.509 55.594 100.294 55.5812 99.0335C55.5684 97.7734 55.0671 96.5675 54.1828 95.6697H54.1846ZM44.9736 101.049C42.9785 101.045 39.7318 103.302 31.79 111.242L31.8164 111.27L31.7707 111.263L28.7842 114.229C28.7091 114.301 28.6598 114.396 28.6439 114.499C28.628 114.602 28.6464 114.707 28.6963 114.798C28.7427 114.892 28.8189 114.968 28.913 115.014C29.0072 115.06 29.1139 115.074 29.2166 115.053L34.3178 113.962C34.3384 113.939 34.353 113.912 34.36 113.882L34.4619 113.988L32.6848 115.753H32.6496L22.282 126.198L25.6043 129.383C25.6993 129.463 25.8165 129.513 25.9405 129.526C26.0645 129.538 26.1894 129.513 26.2986 129.453C26.4075 129.391 26.4948 129.297 26.5488 129.184C26.6028 129.071 26.621 128.944 26.601 128.82L26.1123 126.711C26.0794 126.669 26.0615 126.617 26.0615 126.564C26.0615 126.511 26.0794 126.459 26.1123 126.417V126.438C30.656 124.27 34.8817 121.491 38.6719 118.177L36.5274 116.036L36.5783 116.029L35.3215 114.758L35.3918 114.686L35.492 114.786L35.4393 114.839L38.7879 118.231V118.238C45.0475 112.332 49.5352 107.54 48.6633 104.251V104.239C48.6633 103.743 48.4488 103.272 48.085 102.933H48.0656C47.8807 102.765 47.662 102.638 47.424 102.56L47.5576 102.425H47.5752C46.7227 101.674 46.0213 101.05 44.9736 101.049ZM22.2012 126.245L19.7701 128.676C19.6845 128.731 19.618 128.812 19.5799 128.906C19.5418 129 19.534 129.104 19.5574 129.204C19.5818 129.303 19.6366 129.392 19.7141 129.459C19.7916 129.526 19.888 129.567 19.9899 129.576L25.9436 129.987L22.2012 126.245Z" fill="white"/>
<path d="M50.4896 93.9084C49.2572 93.9948 48.0957 94.517 47.2131 95.3814C46.5183 96.087 46.0416 96.978 45.8402 97.9476C45.6388 98.9172 45.7212 99.9243 46.0775 100.848C45.7027 100.687 45.2972 100.609 44.8893 100.62C42.6814 100.664 39.2853 103.116 31.4771 110.926C31.4596 110.943 31.4543 110.961 31.442 110.978L31.4068 111.001L28.4414 113.99C28.299 114.129 28.2058 114.31 28.176 114.507C28.1462 114.704 28.1814 114.905 28.2762 115.079C28.359 115.217 28.4755 115.332 28.6148 115.413C28.7541 115.493 28.9116 115.537 29.0725 115.54L29.2447 115.445L33.1682 114.603L31.2838 116.509C31.2448 116.566 31.2206 116.633 31.2135 116.702L22.0201 125.895C21.9888 125.913 21.9594 125.933 21.9322 125.957L19.5064 128.388C19.3834 128.511 19.2991 128.668 19.2638 128.839C19.2285 129.01 19.2438 129.187 19.3078 129.349C19.3688 129.512 19.4749 129.654 19.6138 129.759C19.7527 129.863 19.9185 129.926 20.0918 129.94L26.0156 130.351V130.358C26.1141 130.318 26.1981 130.249 26.2564 130.16C26.3043 130.093 26.3317 130.014 26.3355 129.933C26.3392 129.851 26.3191 129.77 26.2775 129.699C26.4892 129.595 26.6596 129.422 26.7616 129.209C26.8636 128.996 26.8912 128.755 26.84 128.525L26.3531 126.583C30.7883 124.463 34.9433 121.801 38.7228 118.658L38.7879 118.672H38.809C38.9277 118.662 39.0392 118.611 39.1254 118.528C45.4922 112.506 49.2328 108.373 49.2328 105.097C49.246 104.654 49.1793 104.212 49.0359 103.793C49.5995 104.016 50.1983 104.137 50.8043 104.149V104.121C51.6479 104.099 52.4738 103.874 53.2125 103.466L53.2353 103.469C53.3329 103.5 53.4384 103.492 53.5307 103.448C53.8879 103.237 54.2134 102.976 54.4975 102.673C54.9776 102.204 55.3603 101.645 55.6237 101.028C55.8871 100.411 56.0258 99.748 56.032 99.077C56.0382 98.4061 55.9118 97.7406 55.6599 97.1187C55.408 96.4969 55.0356 95.9309 54.5643 95.4535L54.5432 95.4289L54.4992 95.3814L54.4605 95.3498C54.4261 95.3094 54.3858 95.2744 54.341 95.2461C53.8222 94.7753 53.2136 94.4141 52.5518 94.1843C51.89 93.9544 51.1886 93.8606 50.4896 93.9084ZM50.8061 94.7275C51.7549 94.7341 52.6757 95.0501 53.4287 95.6275L49.6441 99.4384C49.5742 99.4913 49.5266 99.5684 49.5105 99.6547V99.6617C49.504 99.6876 49.5005 99.7141 49.5 99.7408V99.7478L49.5105 99.7953C49.5206 99.8943 49.5685 99.9855 49.6441 100.05L52.5094 102.914C51.7788 103.233 50.9728 103.34 50.1843 103.222C49.3957 103.104 48.6564 102.765 48.0516 102.246L48.0375 102.237L48.0164 102.212L48.0041 102.205C47.9333 102.143 47.8641 102.079 47.7967 102.014C47.2042 101.416 46.8013 100.657 46.6387 99.8314C46.4761 99.0058 46.5609 98.1506 46.8826 97.373C47.201 96.5934 47.7437 95.9258 48.4418 95.4549C49.1399 94.9839 49.9639 94.7308 50.8061 94.7275ZM54.1494 96.3412C54.7646 97.0882 55.1039 98.0287 55.1039 99.006C55.104 99.5706 54.9922 100.13 54.775 100.651C54.5578 101.172 54.2394 101.644 53.8383 102.042C53.6853 102.188 53.522 102.323 53.3496 102.446L50.5652 99.7338L54.1494 96.3412ZM53.8699 98.2853C53.8187 98.2861 53.7683 98.2981 53.7223 98.3205C53.6413 98.3656 53.5767 98.4351 53.5377 98.5191C53.4902 98.607 53.5166 98.7037 53.5588 98.7863C53.6425 98.9615 53.6754 99.1567 53.6537 99.3497C53.6319 99.5427 53.5564 99.7257 53.4357 99.8779C53.4052 99.908 53.381 99.9438 53.3645 99.9834C53.3479 100.023 53.3394 100.065 53.3394 100.108C53.3394 100.151 53.3479 100.193 53.3645 100.233C53.381 100.273 53.4052 100.308 53.4357 100.338C53.467 100.352 53.5009 100.359 53.5351 100.359C53.5693 100.359 53.6031 100.352 53.6344 100.338C53.6909 100.353 53.7504 100.352 53.8062 100.335C53.8621 100.318 53.9121 100.286 53.9508 100.242C54.1491 99.9963 54.2747 99.7002 54.3133 99.387C54.3518 99.0738 54.3017 98.7561 54.1687 98.4699L54.1828 98.4629C54.1501 98.409 54.1042 98.3645 54.0495 98.3334C53.9947 98.3023 53.9329 98.2858 53.8699 98.2853ZM44.6695 101.495C45.3322 101.448 45.9882 101.653 46.5064 102.068C46.0217 102.131 45.5709 102.35 45.2232 102.694L34.5146 113.329L32.4228 111.242C37.9723 105.723 41.3648 102.863 43.4707 101.891C43.8324 101.664 44.2438 101.528 44.6695 101.495ZM46.575 102.845C46.7871 102.811 47.0042 102.828 47.2084 102.895C47.4125 102.962 47.5979 103.076 47.7492 103.228C47.7892 103.267 47.8273 103.307 47.8635 103.35C47.9412 103.468 48.0116 103.592 48.0744 103.719L48.085 103.743C48.1411 103.895 48.1668 104.056 48.1605 104.218C48.155 104.403 48.1114 104.586 48.0325 104.753C47.9536 104.921 47.841 105.071 47.7018 105.194L36.2812 115.127L35.0648 113.912L45.8244 103.227C46.027 103.023 46.2893 102.888 46.5732 102.843L46.575 102.845ZM46.5891 103.685C46.5307 103.727 46.4775 103.775 46.4309 103.829L46.5891 103.685ZM48.1711 106.044C47.3203 109.182 43.1789 113.395 38.809 117.532L37.0512 115.774L48.1711 106.044ZM31.7918 111.845L31.8393 111.891L33.5707 113.622L29.0443 114.593L31.7918 111.847V111.845ZM34.5111 114.566L35.0877 115.157L35.0947 115.194L35.1246 115.197L35.6519 115.733L32.9555 116.141L32.9484 116.127L34.5111 114.566ZM36.29 116.505L38.0127 118.21C34.2951 121.299 30.2164 123.926 25.8662 126.032C25.7266 126.101 25.6145 126.215 25.5483 126.356C25.4822 126.497 25.466 126.656 25.5023 126.808L25.9893 128.924C26.0093 128.947 26.0203 128.976 26.0203 129.006C26.0203 129.036 26.0093 129.065 25.9893 129.087C25.9626 129.111 25.9282 129.124 25.8926 129.124C25.857 129.124 25.8226 129.111 25.7959 129.087L22.9342 126.177L31.8023 117.182L36.29 116.505ZM22.2891 126.808L22.4947 127.001L24.7922 129.297L20.0918 128.993L22.2891 126.808ZM125.745 103.137C125.422 103.132 125.1 103.162 124.784 103.225C121.734 103.835 120.342 105.554 120.602 108.706C120.774 111.061 122.085 112.183 123.822 112.965C125.038 113.598 126.274 114.012 127.215 115.057C127.701 115.569 128.032 116.208 128.17 116.9C128.309 117.593 128.249 118.31 127.997 118.97C127.47 120.451 126.515 121.058 125.216 121.147C123.822 121.216 122.69 120.893 121.648 119.759C121.275 119.319 120.781 118.968 120.342 119.488C119.82 120.1 120.259 120.708 120.602 121.147C121.744 122.533 123.21 122.881 125.038 122.881V122.86C125.648 122.684 126.603 122.775 127.477 122.163C129.391 121.037 129.913 119.293 129.913 117.034C129.913 114.596 128.871 112.928 126.954 111.987C125.738 111.383 124.434 111.012 123.302 110.078C122.43 109.287 122.256 108.25 122.428 107.03C122.606 105.814 123.493 105.202 124.434 105.032C125.568 104.86 126.784 104.86 127.914 105.471C128.438 105.724 129.039 106.074 129.303 105.201C129.563 104.445 129.041 103.923 128.436 103.743C127.587 103.42 126.687 103.146 125.745 103.137ZM189.628 103.172C188.701 103.23 188.613 104.272 188.367 105L184.103 120.752C183.932 121.446 183.67 122.318 184.542 122.661C185.409 122.902 185.497 122.056 185.676 121.446C186.718 118.286 186.718 118.287 189.671 118.287H190.441C192.818 118.287 192.82 118.287 193.593 120.959C193.685 121.314 193.855 121.749 193.943 122.091C194.101 122.613 194.444 122.701 194.876 122.613C195.398 122.524 195.488 122.091 195.488 121.48L195.474 121.529C195.4 120.999 195.285 120.475 195.131 119.963L191.127 105C190.956 104.223 190.763 103.262 189.823 103.174C189.758 103.169 189.693 103.17 189.628 103.172ZM104.597 103.228C101.988 103.228 100.252 104.445 99.9 106.972C99.3779 110.875 99.4676 114.865 99.9 118.781C100.25 121.485 101.906 122.701 104.774 122.701C107.474 122.701 108.949 121.371 109.383 118.699C109.647 116.788 109.475 114.965 109.561 113.061C109.473 111.058 109.733 109.057 109.294 106.971C108.861 104.533 107.205 103.228 104.597 103.228ZM140.528 103.235C140.098 103.235 139.746 103.587 139.746 104.107C139.746 104.78 140.103 105.053 140.618 105.053C141.133 105.053 141.746 105.134 142.267 105.053C143.573 104.874 144.181 105.399 144.093 107.046V121.054C144.093 121.728 144.093 122.51 144.965 122.51C145.749 122.51 145.837 121.749 145.837 121.054V106.79C145.837 105.485 146.188 104.874 147.401 104.961C148.013 105.049 148.707 104.961 149.31 104.961C149.839 104.961 150.182 104.633 150.182 104.023C150.182 103.508 149.839 103.235 149.4 103.235H140.528ZM80.3988 103.249C79.3758 103.249 78.9434 103.682 78.9434 104.986V113.047L78.9029 113.079V121.253C78.9029 121.947 78.9029 122.647 79.6852 122.647C80.4674 122.647 80.55 121.954 80.55 121.343C80.55 119.887 80.6397 118.296 80.55 116.732C80.4674 115.426 80.9068 114.819 82.1232 114.902C82.9195 114.99 83.5928 114.902 84.375 114.902C87.0943 114.73 88.6605 112.933 88.7484 109.773C88.8381 105.158 87.3545 103.339 83.352 103.251L80.3988 103.249ZM215.682 103.436C215.181 103.436 214.836 103.703 214.748 104.308C214.659 104.74 214.661 105.083 214.661 105.522V115.718C214.661 116.069 214.748 116.591 214.316 116.77C213.787 116.941 213.789 116.421 213.615 116.069C213.355 115.37 213.005 114.765 212.743 114.07L208.485 104.582C208.129 103.887 207.694 103.274 206.921 103.538C206.221 103.713 206.309 104.499 206.309 105.102V121.137C206.309 121.829 206.309 122.786 207.25 122.701C208.122 122.701 207.944 121.742 207.944 121.137V110.783C207.944 110.17 207.772 109.477 208.296 108.955L208.313 108.92C208.904 109.177 208.995 109.787 209.255 110.309L214.124 121.095C214.476 121.879 214.838 122.831 215.777 122.489C216.643 122.22 216.383 121.274 216.383 120.573V104.478C216.383 103.956 216.204 103.524 215.682 103.436ZM162.014 103.487C161.909 103.493 161.805 103.512 161.705 103.545C160.922 103.808 161.1 104.759 161.1 105.454V121.81C161.183 122.243 161.362 122.592 161.884 122.682C162.385 122.682 162.73 122.33 162.817 121.81C162.905 121.288 162.905 120.764 162.905 120.246V109.716C162.905 109.389 162.817 108.866 163.257 108.785C163.6 108.695 163.6 109.217 163.779 109.477L166.12 114.614C166.388 115.218 166.47 115.911 167.171 115.911C167.664 115.911 167.843 115.218 168.103 114.696L170.975 108.523L170.988 108.495C171.682 109.196 171.505 109.889 171.592 110.583V120.587C171.592 121.466 171.318 122.682 172.533 122.682C173.667 122.682 173.399 121.459 173.399 120.678V105.543C173.399 104.756 173.638 103.807 172.705 103.539C171.751 103.367 171.311 104.149 170.968 104.932L168.296 110.673C168.029 111.195 167.945 112.237 167.164 112.237C166.461 112.128 166.38 111.195 166.12 110.673L163.441 104.759C163.143 104.076 162.703 103.452 162.014 103.487ZM83.7369 105.011C84.5736 105.021 85.377 105.222 86.0713 105.918C87.3826 107.305 87.3756 109.047 86.9432 110.871C86.509 112.705 85.5563 113.313 83.0285 113.313C80.5922 113.313 80.5922 113.313 80.5922 110.525V106.61C80.5922 105.999 80.5922 105.222 81.2021 105.222C82.0301 105.176 82.9002 105 83.7369 105.011ZM104.521 105.13C106.522 105.042 107.736 106.354 107.824 108.611V113.076C107.824 114.642 107.912 116.138 107.824 117.6C107.742 119.956 106.52 121.165 104.52 121.165C102.577 121.075 101.45 119.852 101.363 117.6V108.612C101.479 106.345 102.614 105.13 104.521 105.13ZM189.747 107.136C190.269 107.136 190.181 107.741 190.269 108.18L191.925 114.353C192.528 116.523 192.44 116.612 190.531 116.612H189.659L189.664 116.647C186.878 116.647 186.789 116.647 187.661 113.487L189.055 108.27C189.142 107.741 189.225 107.136 189.747 107.136Z" fill="#A0A0A0"/>
</g>
</svg>
